<?xml version="1.0" encoding="UTF-8" standalone="no"?>

<svg width="48" height="48" viewBox="0 0 16 16"
   version="1.1"
   id="svg2"
   xmlns:xlink="http://www.w3.org/1999/xlink"
   xmlns="http://www.w3.org/2000/svg"
   xmlns:svg="http://www.w3.org/2000/svg"
   xmlns:rdf="http://www.w3.org/1999/02/22-rdf-syntax-ns#"
   xmlns:cc="http://creativecommons.org/ns#"
   xmlns:dc="http://purl.org/dc/elements/1.1/">
  <defs>
    <style id="current-color-scheme" type="text/css">
      .ColorScheme-Text { color: #0abdc6; } .ColorScheme-Highlight { color:#5294e2; }
    </style>
    <linearGradient id="arrongin" x1="0%" x2="0%" y1="0%" y2="100%">
      <stop offset="0%" style="stop-color:#dd9b44; stop-opacity:1"/>
      <stop offset="100%" style="stop-color:#ad6c16; stop-opacity:1"/>
    </linearGradient>
    <linearGradient id="aurora" x1="0%" x2="0%" y1="0%" y2="100%">
      <stop offset="0%" style="stop-color:#09D4DF; stop-opacity:1"/>
      <stop offset="100%" style="stop-color:#9269F4; stop-opacity:1"/>
    </linearGradient>
    <linearGradient id="cyberneon" x1="0%" x2="0%" y1="0%" y2="100%">
      <stop offset="0" style="stop-color:#0abdc6; stop-opacity:1"/>
      <stop offset="1" style="stop-color:#ea00d9; stop-opacity:1"/>
    </linearGradient>
    <linearGradient id="fitdance" x1="0%" x2="0%" y1="0%" y2="100%">
      <stop offset="0%" style="stop-color:#1AD6AB; stop-opacity:1"/>
      <stop offset="100%" style="stop-color:#329DB6; stop-opacity:1"/>
    </linearGradient>
    <linearGradient id="oomox" x1="0%" x2="0%" y1="0%" y2="100%">
      <stop offset="0%" style="stop-color:#0abdc6; stop-opacity:1"/>
      <stop offset="100%" style="stop-color:#b800ff; stop-opacity:1"/>
    </linearGradient>
    <linearGradient id="oomox_highlight" x1="0%" x2="0%" y1="0%" y2="100%">
      <stop style="stop-color:#41ff00;stop-opacity:1;" offset="0" id="stop9" />
      <stop style="stop-color:#e7ff00;stop-opacity:1;" offset="1" id="stop10" />
    </linearGradient>
    <linearGradient id="rainblue" x1="0%" x2="0%" y1="0%" y2="100%">
      <stop offset="0%" style="stop-color:#00F260; stop-opacity:1"/>
      <stop offset="100%" style="stop-color:#0575E6; stop-opacity:1"/>
    </linearGradient>
    <linearGradient id="sunrise" x1="0%" x2="0%" y1="0%" y2="100%">
      <stop offset="0%" style="stop-color: #FF8501; stop-opacity:1"/>
      <stop offset="100%" style="stop-color: #FFCB01; stop-opacity:1"/>
    </linearGradient>
    <linearGradient id="telinkrin" x1="0%" x2="0%" y1="0%" y2="100%">
      <stop offset="0%" style="stop-color: #b2ced6; stop-opacity:1"/>
      <stop offset="100%" style="stop-color: #6da5b7; stop-opacity:1"/>
    </linearGradient>
    <linearGradient id="60spsycho" x1="0%" x2="0%" y1="0%" y2="100%">
      <stop offset="0%" style="stop-color: #df5940; stop-opacity:1"/>
      <stop offset="25%" style="stop-color: #d8d15f; stop-opacity:1"/>
      <stop offset="50%" style="stop-color: #e9882a; stop-opacity:1"/>
      <stop offset="100%" style="stop-color: #279362; stop-opacity:1"/>
    </linearGradient>
    <linearGradient id="90ssummer" x1="0%" x2="0%" y1="0%" y2="100%">
      <stop offset="0%" style="stop-color: #f618c7; stop-opacity:1"/>
      <stop offset="20%" style="stop-color: #94ffab; stop-opacity:1"/>
      <stop offset="50%" style="stop-color: #fbfd54; stop-opacity:1"/>
      <stop offset="100%" style="stop-color: #0f83ae; stop-opacity:1"/>
    </linearGradient>
    <linearGradient id="90ssummer_highlight" x1="0%" x2="0%" y1="0%" y2="100%">
      <stop offset="1e-07" stop-color="#FF57DB"/>
      <stop offset="0.5" stop-color="#FF51FF"/>
      <stop offset="1" stop-color="#F50FF5"/>
    </linearGradient>
    <linearGradient
      id="linearGradient2284"
      gradientTransform="matrix(1.6440072,0,0,0.60826983,-38.207552,-69.729474)"
      x1="0"
      y1="132.57439"
      x2="77.858536"
      y2="132.57439"
      gradientUnits="userSpaceOnUse">
      <stop
        style="stop-color:#41ff00;stop-opacity:1;"
        offset="0"
        id="stop2280" />
      <stop
        style="stop-color:#e7ff00;stop-opacity:1;"
        offset="1"
        id="stop2282" />
      </linearGradient>
    </defs>
  <path
     id="path_pathVkcheck"
     style="stroke-width:0.133333;fill:url(#oomox)"
     d="M 5.8346667,0 Q 5.7906667,0 5.744,0.01066667 L 4.9506667,0.26933333 C 4.5266667,0.596 4.6973333,1.3346667 4.724,1.8573333 l 0.032,0.216 A 6.1333333,6.1333333 0 0 0 3.5426667,2.9466667 8.5333333,8.5333333 0 0 0 3.1453333,2.7493333 c -0.4386666,-0.1546666 -1.088,-0.5133333 -1.42,-0.14 L 1.2346667,3.284 a 0.66666667,0.66666667 0 0 0 0.022667,0.428 V 3.71467 L 1.2786667,3.776 1.2893333,3.808 C 1.412,4.1906667 1.8013333,4.5533333 2.052,4.8653333 l 0.054667,0.057333 A 6.1333333,6.1333333 0 0 0 1.668,6.2786667 Q 1.436,6.312 1.2306667,6.352 C 0.78533333,6.4853333 0.04933333,6.576 0,7.0746667 V 8.1813333 C 0.18666667,8.704 0.96666667,8.772 1.4906667,8.9146667 l 0.2226666,0.036 a 6.4,6.4 0 0 0 0.344,1.1786663 A 10.666667,10.666667 0 0 1 1.8,10.392 c -0.2546667,0.333333 -0.7213333,0.78 -0.6226667,1.181333 q 0,-0.008 -0.004,-0.01467 0,0.05067 0.010667,0.09867 0,0.05067 0.010667,0.09867 0,0.05067 0.00933,0.1 -0.00133,0.125333 0.066667,0.248 l 0.508,0.698667 c 0.4586666,0.313333 1.1293333,-0.092 1.636,-0.285334 q 0.1,-0.04533 0.2013333,-0.1 A 6.4,6.4 0 0 0 4.6506667,13.208 l 0.042667,-0.264 0.004,-0.032 0.004,-0.02267 -0.008,0.05467 q -0.034667,0.2 -0.057333,0.382667 c -0.008,0.334666 -0.084,0.808 0.048,1.12 A 0.93333333,0.93333333 0 0 0 4.724,14.572 q 0.016,0.06667 0.04,0.124 0.016,0.06667 0.04,0.124 c 0.045333,0.182667 0.136,0.332 0.3093333,0.408 l 0.8213334,0.266667 c 0.5533333,-0.016 0.8586666,-0.737334 1.156,-1.190667 l 0.104,-0.2 A 6.4,6.4 0 0 0 8.708,14.114667 C 8.7933333,14.245333 8.8813333,14.392 8.9826667,14.533333 8.884,14.396 8.7933333,14.248 8.7093333,14.118667 l 0.02,0.036 0.044,0.06667 0.030667,0.05333 0.044,0.06667 0.030667,0.05467 0.044,0.06667 0.030667,0.05467 c 0.2213334,0.321334 0.4773334,0.84 0.8373334,0.965334 l 0.042667,0.01333 q 0.1066667,0.02667 0.2239993,0.0013 l 0.821334,-0.266666 a 0.66666667,0.66666667 0 0 0 0.07467,-0.068 C 11.296,14.797333 11.14,14.096 11.113333,13.586667 L 11.08,13.364 a 6.4,6.4 0 0 0 1.256,-0.902667 q 0.213333,0.113334 0.410667,0.204 C 13.2,12.825333 13.872,13.196 14.216,12.809333 L 14.722667,12.112 C 14.878667,11.578667 14.288,11.065333 13.948,10.642667 q -0.076,-0.08 -0.158667,-0.16 a 6.4,6.4 0 0 0 0.485334,-1.4693337 q 0.24,-0.034667 0.452,-0.076 C 15.188,8.8 15.949333,8.7053333 16,8.1906667 V 7.328 C 15.914667,7.088 15.706667,6.9453333 15.453333,6.8466667 q -0.06133,-0.032 -0.128,-0.057333 Q 15.262667,6.7573333 15.196,6.732 15.133333,6.7 15.065333,6.6746667 c -0.236,-0.12 -0.533333,-0.1813334 -0.804,-0.2413334 a 6.4,6.4 0 0 0 -0.444,-1.348 Q 13.990667,4.916 14.137333,4.7586667 C 14.430667,4.376 14.990667,3.852 14.728,3.4053333 L 14.221333,2.7066667 A 0.66666667,0.66666667 0 0 0 13.912,2.596 0.66666667,0.66666667 0 0 0 13.796,2.5746667 0.66666667,0.66666667 0 0 0 13.68,2.5533333 0.66666667,0.66666667 0 0 0 13.562667,2.5306667 C 13.136,2.412 12.592,2.7293333 12.165333,2.8906667 l -0.0027,0.00267 A 6.4,6.4 0 0 0 11.136,2.176 q 0.04267,-0.24 0.06667,-0.4533333 C 11.216,1.2426667 11.361336,0.488 10.88667,0.28133333 L 10.065333,0.01466667 q -0.03333,0 -0.066666,0.0053333 l -0.016,-0.0053333 Q 9.948,0.01466667 9.916,0.02 L 9.8986667,0.01466667 Q 9.864,0.01466667 9.832,0.02 L 9.814667,0.0133333 Q 9.78,0.0133333 9.748,0.0186666 L 9.730667,0.0133333 c -0.536,0.016 -0.832,0.71333334 -1.1186667,1.152 l -0.1,0.1933334 a 6.1333333,6.1333333 0 0 0 -1.2866667,-0.028 Q 7.1346667,1.1506667 7.0466667,0.992 C 6.7973333,0.62933333 6.5026667,0.016 6.0666667,0 h -0.1933334 0.00133 z m 7.4560003,3.2186667 c 0,0 -0.157334,0.6266666 -0.461334,1.5466666 0.296,-0.9 0.461334,-1.5466666 0.461334,-1.5466666 M 12.804,4.8333333 C 11.905333,7.5266667 9.7573333,12.66 6.3973333,12.6 c -1.512,-0.02667 -2.532,-2.097333 -3.0186666,-3.38 A 10.8,10.8 0 0 1 3.1493333,8.5 c 0,0 1.6573334,2.437333 4,2.12 C 8.972,10.372 11.469333,6.896 12.804,4.8333333" />
  <metadata
     id="metadata2">
    <rdf:RDF>
      <cc:Work
         rdf:about="">
        <dc:creator>
          <cc:Agent>
            <dc:title>dreifacherspass</dc:title>
          </cc:Agent>
        </dc:creator>
        <cc:license
           rdf:resource="http://creativecommons.org/licenses/by-sa/4.0/" />
      </cc:Work>
      <cc:License
         rdf:about="http://creativecommons.org/licenses/by-sa/4.0/">
        <cc:permits
           rdf:resource="http://creativecommons.org/ns#Reproduction" />
        <cc:permits
           rdf:resource="http://creativecommons.org/ns#Distribution" />
        <cc:requires
           rdf:resource="http://creativecommons.org/ns#Notice" />
        <cc:requires
           rdf:resource="http://creativecommons.org/ns#Attribution" />
        <cc:permits
           rdf:resource="http://creativecommons.org/ns#DerivativeWorks" />
        <cc:requires
           rdf:resource="http://creativecommons.org/ns#ShareAlike" />
      </cc:License>
    </rdf:RDF>
  </metadata>
</svg>
