<?xml version="1.0" encoding="UTF-8" standalone="no"?>
<svg width="22" height="22" 
   viewBox="0 0 16 16"
   version="1.1"
   id="svg18"
   xmlns:xlink="http://www.w3.org/1999/xlink"
   xmlns="http://www.w3.org/2000/svg"
   xmlns:svg="http://www.w3.org/2000/svg"
   xmlns:rdf="http://www.w3.org/1999/02/22-rdf-syntax-ns#"
   xmlns:cc="http://creativecommons.org/ns#"
   xmlns:dc="http://purl.org/dc/elements/1.1/">
  <defs>
    <style id="current-color-scheme" type="text/css">
      .ColorScheme-Text { color: #0abdc6; } .ColorScheme-Highlight { color:#5294e2; }
    </style>
    <linearGradient id="arrongin" x1="0%" x2="0%" y1="0%" y2="100%">
      <stop offset="0%" style="stop-color:#dd9b44; stop-opacity:1"/>
      <stop offset="100%" style="stop-color:#ad6c16; stop-opacity:1"/>
    </linearGradient>
    <linearGradient id="aurora" x1="0%" x2="0%" y1="0%" y2="100%">
      <stop offset="0%" style="stop-color:#09D4DF; stop-opacity:1"/>
      <stop offset="100%" style="stop-color:#9269F4; stop-opacity:1"/>
    </linearGradient>
    <linearGradient id="cyberneon" x1="0%" x2="0%" y1="0%" y2="100%">
      <stop offset="0" style="stop-color:#0abdc6; stop-opacity:1"/>
      <stop offset="1" style="stop-color:#ea00d9; stop-opacity:1"/>
    </linearGradient>
    <linearGradient id="fitdance" x1="0%" x2="0%" y1="0%" y2="100%">
      <stop offset="0%" style="stop-color:#1AD6AB; stop-opacity:1"/>
      <stop offset="100%" style="stop-color:#329DB6; stop-opacity:1"/>
    </linearGradient>
    <linearGradient id="oomox" x1="0%" x2="0%" y1="0%" y2="100%">
      <stop offset="0%" style="stop-color:#0abdc6; stop-opacity:1"/>
      <stop offset="100%" style="stop-color:#b800ff; stop-opacity:1"/>
    </linearGradient>
    <linearGradient id="rainblue" x1="0%" x2="0%" y1="0%" y2="100%">
      <stop offset="0%" style="stop-color:#00F260; stop-opacity:1"/>
      <stop offset="100%" style="stop-color:#0575E6; stop-opacity:1"/>
    </linearGradient>
    <linearGradient id="sunrise" x1="0%" x2="0%" y1="0%" y2="100%">
      <stop offset="0%" style="stop-color: #FF8501; stop-opacity:1"/>
      <stop offset="100%" style="stop-color: #FFCB01; stop-opacity:1"/>
    </linearGradient>
    <linearGradient id="telinkrin" x1="0%" x2="0%" y1="0%" y2="100%">
      <stop offset="0%" style="stop-color: #b2ced6; stop-opacity:1"/>
      <stop offset="100%" style="stop-color: #6da5b7; stop-opacity:1"/>
    </linearGradient>
    <linearGradient id="60spsycho" x1="0%" x2="0%" y1="0%" y2="100%">
      <stop offset="0%" style="stop-color: #df5940; stop-opacity:1"/>
      <stop offset="25%" style="stop-color: #d8d15f; stop-opacity:1"/>
      <stop offset="50%" style="stop-color: #e9882a; stop-opacity:1"/>
      <stop offset="100%" style="stop-color: #279362; stop-opacity:1"/>
    </linearGradient>
    <linearGradient id="90ssummer" x1="0%" x2="0%" y1="0%" y2="100%">
      <stop offset="0%" style="stop-color: #f618c7; stop-opacity:1"/>
      <stop offset="20%" style="stop-color: #94ffab; stop-opacity:1"/>
      <stop offset="50%" style="stop-color: #fbfd54; stop-opacity:1"/>
      <stop offset="100%" style="stop-color: #0f83ae; stop-opacity:1"/>
    </linearGradient>
  </defs>
  <path
     id="path_apps"
     class="ColorScheme-Text"
     style="fill:url(#oomox);stroke-width:0.410256;fill-opacity:1"
     d="M 1.2304688 0 C 0.55073545 -1.4802974e-16 0 0.55073545 0 1.2304688 L 0 3.6914062 C -1.4802974e-16 4.3711601 0.55073545 4.9238281 1.2304688 4.9238281 L 3.6914062 4.9238281 C 4.3711601 4.9238281 4.9238281 4.3711601 4.9238281 3.6914062 L 4.9238281 1.2304688 C 4.9238281 0.55073545 4.3711601 0 3.6914062 0 L 1.2304688 0 z M 6.7695312 0 C 6.0897773 -1.4802974e-16 5.5390625 0.55073545 5.5390625 1.2304688 L 5.5390625 3.6914062 C 5.5390625 4.3711601 6.0897774 4.9238281 6.7695312 4.9238281 L 9.2304688 4.9238281 C 9.9102227 4.9238281 10.460938 4.3711601 10.460938 3.6914062 L 10.460938 1.2304688 C 10.460938 0.55073545 9.9102226 0 9.2304688 0 L 6.7695312 0 z M 12.308594 0 C 11.62884 -1.4802974e-16 11.076172 0.55073545 11.076172 1.2304688 L 11.076172 3.6914062 C 11.076172 4.3711601 11.62884 4.9238281 12.308594 4.9238281 L 14.769531 4.9238281 C 15.449285 4.9238281 16 4.3711601 16 3.6914062 L 16 1.2304688 C 16 0.55073545 15.449285 0 14.769531 0 L 12.308594 0 z M 1.2304688 5.5390625 C 0.55073545 5.5390625 0 6.0897774 0 6.7695312 L 0 9.2304688 C -1.4802974e-16 9.9102226 0.55073545 10.460937 1.2304688 10.460938 L 3.6914062 10.460938 C 4.3711601 10.460938 4.9238281 9.9102226 4.9238281 9.2304688 L 4.9238281 6.7695312 C 4.9238281 6.0897774 4.3711601 5.5390625 3.6914062 5.5390625 L 1.2304688 5.5390625 z M 6.7695312 5.5390625 C 6.0897774 5.5390625 5.5390625 6.0897774 5.5390625 6.7695312 L 5.5390625 9.2304688 C 5.5390625 9.9102226 6.0897774 10.460938 6.7695312 10.460938 L 9.2304688 10.460938 C 9.9102226 10.460938 10.460938 9.9102226 10.460938 9.2304688 L 10.460938 6.7695312 C 10.460938 6.0897774 9.9102226 5.5390625 9.2304688 5.5390625 L 6.7695312 5.5390625 z M 12.308594 5.5390625 C 11.62884 5.5390625 11.076172 6.0897774 11.076172 6.7695312 L 11.076172 9.2304688 C 11.076172 9.9102227 11.62884 10.460938 12.308594 10.460938 L 14.769531 10.460938 C 15.449285 10.460938 16 9.9102226 16 9.2304688 L 16 6.7695312 C 16 6.0897773 15.449285 5.5390625 14.769531 5.5390625 L 12.308594 5.5390625 z M 1.2304688 11.076172 C 0.55073545 11.076172 0 11.62884 0 12.308594 L 0 14.769531 C -1.4802974e-16 15.449285 0.55073545 16 1.2304688 16 L 3.6914062 16 C 4.3711601 16 4.9238281 15.449285 4.9238281 14.769531 L 4.9238281 12.308594 C 4.9238281 11.62884 4.3711601 11.076172 3.6914062 11.076172 L 1.2304688 11.076172 z M 6.7695312 11.076172 C 6.0897774 11.076172 5.5390625 11.62884 5.5390625 12.308594 L 5.5390625 14.769531 C 5.5390625 15.449285 6.0897774 16 6.7695312 16 L 9.2304688 16 C 9.9102226 16 10.460937 15.449285 10.460938 14.769531 L 10.460938 12.308594 C 10.460938 11.62884 9.9102226 11.076172 9.2304688 11.076172 L 6.7695312 11.076172 z M 12.308594 11.076172 C 11.62884 11.076172 11.076172 11.62884 11.076172 12.308594 L 11.076172 14.769531 C 11.076172 15.449285 11.62884 16 12.308594 16 L 14.769531 16 C 15.449285 16 16 15.449285 16 14.769531 L 16 12.308594 C 16 11.62884 15.449285 11.076172 14.769531 11.076172 L 12.308594 11.076172 z " />
  <metadata
     id="metadata18">
    <rdf:RDF>
      <cc:Work
         rdf:about="">
        <dc:creator>
          <cc:Agent>
            <dc:title>dreifacherspass</dc:title>
          </cc:Agent>
        </dc:creator>
        <cc:license
           rdf:resource="http://creativecommons.org/licenses/by-sa/4.0/" />
      </cc:Work>
      <cc:License
         rdf:about="http://creativecommons.org/licenses/by-sa/4.0/">
        <cc:permits
           rdf:resource="http://creativecommons.org/ns#Reproduction" />
        <cc:permits
           rdf:resource="http://creativecommons.org/ns#Distribution" />
        <cc:requires
           rdf:resource="http://creativecommons.org/ns#Notice" />
        <cc:requires
           rdf:resource="http://creativecommons.org/ns#Attribution" />
        <cc:permits
           rdf:resource="http://creativecommons.org/ns#DerivativeWorks" />
        <cc:requires
           rdf:resource="http://creativecommons.org/ns#ShareAlike" />
      </cc:License>
    </rdf:RDF>
  </metadata>
</svg>
