<?xml version="1.0" encoding="UTF-8" standalone="no"?>
<svg width="16" height="16" 
   viewBox="0 0 16 16"
   version="1.1"
   id="svg33"
   xmlns="http://www.w3.org/2000/svg"
   xmlns:svg="http://www.w3.org/2000/svg"
   xmlns:rdf="http://www.w3.org/1999/02/22-rdf-syntax-ns#"
   xmlns:cc="http://creativecommons.org/ns#"
   xmlns:dc="http://purl.org/dc/elements/1.1/">
  <defs>
    <style id="current-color-scheme" type="text/css">
      .ColorScheme-Text { color: #0abdc6; } .ColorScheme-Highlight { color:#5294e2; }
    </style>
    <linearGradient id="arrongin" x1="0%" x2="0%" y1="0%" y2="100%">
      <stop offset="0%" style="stop-color:#dd9b44; stop-opacity:1"/>
      <stop offset="100%" style="stop-color:#ad6c16; stop-opacity:1"/>
    </linearGradient>
    <linearGradient id="aurora" x1="0%" x2="0%" y1="0%" y2="100%">
      <stop offset="0%" style="stop-color:#09D4DF; stop-opacity:1"/>
      <stop offset="100%" style="stop-color:#9269F4; stop-opacity:1"/>
    </linearGradient>
    <linearGradient id="cyberneon" x1="0%" x2="0%" y1="0%" y2="100%">
      <stop offset="0" style="stop-color:#0abdc6; stop-opacity:1"/>
      <stop offset="1" style="stop-color:#ea00d9; stop-opacity:1"/>
    </linearGradient>
    <linearGradient id="fitdance" x1="0%" x2="0%" y1="0%" y2="100%">
      <stop offset="0%" style="stop-color:#1AD6AB; stop-opacity:1"/>
      <stop offset="100%" style="stop-color:#329DB6; stop-opacity:1"/>
    </linearGradient>
    <linearGradient id="oomox" x1="0%" x2="0%" y1="0%" y2="100%">
      <stop offset="0%" style="stop-color:#0abdc6; stop-opacity:1"/>
      <stop offset="100%" style="stop-color:#b800ff; stop-opacity:1"/>
    </linearGradient>
    <linearGradient id="rainblue" x1="0%" x2="0%" y1="0%" y2="100%">
      <stop offset="0%" style="stop-color:#00F260; stop-opacity:1"/>
      <stop offset="100%" style="stop-color:#0575E6; stop-opacity:1"/>
    </linearGradient>
    <linearGradient id="sunrise" x1="0%" x2="0%" y1="0%" y2="100%">
      <stop offset="0%" style="stop-color: #FF8501; stop-opacity:1"/>
      <stop offset="100%" style="stop-color: #FFCB01; stop-opacity:1"/>
    </linearGradient>
    <linearGradient id="telinkrin" x1="0%" x2="0%" y1="0%" y2="100%">
      <stop offset="0%" style="stop-color: #b2ced6; stop-opacity:1"/>
      <stop offset="100%" style="stop-color: #6da5b7; stop-opacity:1"/>
    </linearGradient>
    <linearGradient id="60spsycho" x1="0%" x2="0%" y1="0%" y2="100%">
      <stop offset="0%" style="stop-color: #df5940; stop-opacity:1"/>
      <stop offset="25%" style="stop-color: #d8d15f; stop-opacity:1"/>
      <stop offset="50%" style="stop-color: #e9882a; stop-opacity:1"/>
      <stop offset="100%" style="stop-color: #279362; stop-opacity:1"/>
    </linearGradient>
    <linearGradient id="90ssummer" x1="0%" x2="0%" y1="0%" y2="100%">
      <stop offset="0%" style="stop-color: #f618c7; stop-opacity:1"/>
      <stop offset="20%" style="stop-color: #94ffab; stop-opacity:1"/>
      <stop offset="50%" style="stop-color: #fbfd54; stop-opacity:1"/>
      <stop offset="100%" style="stop-color: #0f83ae; stop-opacity:1"/>
    </linearGradient>
    <linearGradient
      id="linearGradient2284"
      gradientTransform="matrix(1.6440072,0,0,0.60826983,-38.207552,-69.729474)"
      x1="0"
      y1="132.57439"
      x2="77.858536"
      y2="132.57439"
      gradientUnits="userSpaceOnUse">
      <stop
        style="stop-color:#41ff00;stop-opacity:1;"
        offset="0"
        id="stop2280" />
      <stop
        style="stop-color:#e7ff00;stop-opacity:1;"
        offset="1"
        id="stop2282" />
      </linearGradient>
    </defs>
  <path
     id="path_panel_bottom"
     style="opacity:0.5;fill:url(#oomox);fill-opacity:1;stroke-width:0.137931"
     class="ColorScheme-Text"
     d="m 0,9.6701031 v 3.3123189 c 0,0.609375 0.49414057,1.103516 1.1035156,1.103516 H 14.345703 c 0.609375,0 1.103516,-0.494141 1.103516,-1.103516 V 9.67 C 12.724388,9.67 2.9142667,9.6701031 0,9.6701031 Z" />
  <path
     id="path_panel_top"
     style="fill:url(#oomox);opacity:1;stroke-width:0.137931"
     class="ColorScheme-Text"
     d="M 1.1035156 1.9472656 C 0.4919854 1.9472656 -1.4802974e-16 2.439251 0 3.0507812 L 0 9.9472656 L 15.449219 9.9472656 L 15.449219 3.0507812 C 15.449219 2.439251 14.957232 1.9472656 14.345703 1.9472656 L 12.408203 1.9472656 C 12.9254 2.6369566 13.232422 3.4933703 13.232422 4.421875 C 13.232422 6.7025863 11.384226 8.5507812 9.1035156 8.5507812 C 6.8228044 8.5507812 4.9746094 6.7025863 4.9746094 4.421875 C 4.9746094 3.4933602 5.281621 2.6369605 5.7988281 1.9472656 L 1.1035156 1.9472656 z " />
  <path
     d="m 13.232759,4.4223513 c 0,2.2807113 -1.8486,4.1293104 -4.1293107,4.1293104 -2.2807112,0 -4.1293104,-1.8485991 -4.1293104,-4.1293104 0,-2.2807111 1.8485992,-4.12931031 4.1293104,-4.12931031 2.2807107,0 4.1293107,1.84859921 4.1293107,4.12931031 z m 0,0"
     id="path_lens"
     class="ColorScheme-Text"
     style="fill:url(#oomox);stroke-width:0.137931;opacity:0.5" />
  <path
     d="m 4.9493545,4.4137304 c 0,2.2941807 1.8599131,4.1540951 4.1540941,4.1540951 2.2941814,0 4.1540944,-1.8599144 4.1540944,-4.1540951 0,-2.2941807 -1.859913,-4.15409521 -4.1540944,-4.15409521 -2.294181,0 -4.1540941,1.85991451 -4.1540941,4.15409521 z m 0,0"
     id="path_lens_frame"
     class="ColorScheme-Text"
     style="fill:none;stroke:url(#oomox);stroke-linejoin:round;stroke-width:0.51927" />
  <path
     d="m 12.137931,7.4482145 1.103448,1.1034483"
     id="path_handle_connecting_part"
     class="ColorScheme-Text"
     style="fill:none;stroke:url(#oomox);stroke-width:0.827586" />
  <path
     d="m 13.241379,8.5516628 1.931035,1.9310342"
     id="path_handle"
     class="ColorScheme-Text"
     style="fill:none;stroke:url(#oomox);stroke-linecap:round;stroke-width:1.65517" />
  <metadata
     id="metadata33">
    <rdf:RDF>
      <cc:Work
         rdf:about="">
        <dc:creator>
          <cc:Agent>
            <dc:title>dreifacherspass</dc:title>
          </cc:Agent>
        </dc:creator>
        <cc:license
           rdf:resource="http://creativecommons.org/licenses/by-sa/4.0/" />
      </cc:Work>
      <cc:License
         rdf:about="http://creativecommons.org/licenses/by-sa/4.0/">
        <cc:permits
           rdf:resource="http://creativecommons.org/ns#Reproduction" />
        <cc:permits
           rdf:resource="http://creativecommons.org/ns#Distribution" />
        <cc:requires
           rdf:resource="http://creativecommons.org/ns#Notice" />
        <cc:requires
           rdf:resource="http://creativecommons.org/ns#Attribution" />
        <cc:permits
           rdf:resource="http://creativecommons.org/ns#DerivativeWorks" />
        <cc:requires
           rdf:resource="http://creativecommons.org/ns#ShareAlike" />
      </cc:License>
    </rdf:RDF>
  </metadata>
  <rect
     style="fill:url(#oomox);stroke-width:0.40532;paint-order:markers fill stroke"
     id="rect_line_top"
     class="ColorScheme-Text"
     width="11"
     height="0.60000002"
     x="0.82800001"
     y="10.8"
     ry="0.0097728446" />
  <rect
     style="fill:url(#oomox);stroke-width:0.342947;paint-order:markers fill stroke"
     id="rect_line_bottom"
     class="ColorScheme-Text"
     width="7"
     height="0.60000002"
     x="0.80000001"
     y="12"
     ry="0.0025391947" />
  <path
     d="m 15.999875,10.042553 v 5.957422 H 0 v -5.957422 z"
     id="path359"
     style="fill:url(#linearGradient2284);fill-opacity:1;stroke-width:0.125395" />
  <path
     d="m 1.663612,10.042553 5.9193286,5.957422 H 10.234795 L 4.3149662,10.042553 Z m 5.3027084,0 5.9203286,5.957422 h 2.651854 L 9.618175,10.042553 Z m 5.3037086,0 L 16,13.796211 V 11.128019 L 14.921396,10.042566 Z M 1.25e-4,11.037096 v 2.668695 L 2.2798572,16 h 2.6518541 z"
     id="path361"
     style="fill:#000000;fill-opacity:1;stroke-width:0.125395" />
</svg>
