<?xml version="1.0" encoding="UTF-8"?>
<svg viewBox="0 0 22 22" xmlns="http://www.w3.org/2000/svg">
  <defs>
    <linearGradient id="g" x1="0%" x2="0%" y1="0%" y2="100%">
      <stop offset="0%" stop-color="#0abdc6"/>
      <stop offset="100%" stop-color="#b800ff"/>
    </linearGradient>
  </defs>
  <path fill="url(#g)" d="M 22 0.7857 L 22 21.2143 L 0 21.2143 L 0 0.7857 M 20.4286 2.3571 L 9.4286 2.3571 L 9.4286 7.0714 L 20.4286 7.0714 M 7.8571 2.3571 L 1.5714 2.3571 L 1.5714 7.0714 L 7.8571 7.0714 M 20.4286 8.6429 L 9.4286 8.6429 L 9.4286 13.3571 L 20.4286 13.3571 M 7.8571 8.6429 L 1.5714 8.6429 L 1.5714 13.3571 L 7.8571 13.3571 M 20.4286 14.9286 L 9.4286 14.9286 L 9.4286 19.6429 L 20.4286 19.6429 M 7.8571 14.9286 L 1.5714 14.9286 L 1.5714 19.6429 L 7.8571 19.6429"/>
</svg>